<svg xmlns="http://www.w3.org/2000/svg" width="702.5" height="680.418"><path fill="#ed9da0" d="M463.614 139.785C448.453 87.072 393.43 56.63 340.716 71.791c-52.713 15.161-83.155 70.184-67.994 122.897 12.296 42.75 50.81 70.847 93.047 71.856l17.528 7.373-24.84 92.234 128.097 24.134 52.06-134s-75.568 1.415-94.86-24.635c20.84-24.501 29.417-58.637 19.86-91.865Z"/><path fill="#090814" d="m2 601.822 199.371 78.596L395 651.822l-204-60-189 10z"/><path fill="#ed9da0" d="m189.896 569.416 190.763-95.219 40.667 61.808-205.12 85.842c-4.482 14.242-15.64 27.538-31.638 35.566-27.992 14.046-60.107 6.653-71.732-16.513-11.624-23.165 1.644-53.331 29.636-67.378 15.998-8.027 33.327-9.026 47.424-4.106Z"/><path fill="#6c63ff" d="M513.614 254.285S495 350.822 430 348.822s-53-48-53-48l-61.396 34.5S289 372.822 289 419.822l-19 91-27 28 80 63 41-58 41 124 297.5 12.595-5.5-255.595s-16-123-84-148-99.386-22.537-99.386-22.537Z"/><path fill="#090814" d="M348.14 99.78s-38.986 35.273-78.9 29.703c-39.915-5.569-47.34-19.493-47.34-25.062 0 0 0 1.856 11.138 5.57l4.641-39.915s5.57 10.469 25.99 14.053c0 0-17.636-7.369 0-21.85 0 0 9.283 7.797 17.637 7.797 0 0 46.412-63.12 138.308-23.206V30.285l8.354 21.226 10.78-.937 10.57-.92s23.206 26.92 21.35 45.485 33.356 111.811-27.414 140.375c0 0 14.418-82.825-10.644-63.331-25.063 19.493-40.843-11.14-40.843-11.14L348.14 99.78Z"/><path fill="#fff" d="M22.749 507.96c-5.645 0-10.965-2.138-15.061-6.076C3.375 497.74 1 492.164 1 486.182V199.447a21.737 21.737 0 0 1 7.704-16.619 21.722 21.722 0 0 1 17.66-4.861l223.815 37.372c10.617 1.773 18.267 10.872 18.191 21.636l-1.724 240.547c-.084 11.653-9.271 21.142-20.915 21.604l-.02-.5.02.5-222.09 8.817c-.298.011-.595.018-.892.018Z" opacity=".5"/><path fill="#090814" d="M22.749 508.96c-5.895 0-11.491-2.257-15.755-6.355C2.484 498.27 0 492.438 0 486.182V199.447c0-6.71 2.937-13.046 8.058-17.382a22.73 22.73 0 0 1 18.471-5.085l223.815 37.373c11.104 1.854 19.106 11.371 19.026 22.63l-1.724 240.546c-.086 11.853-9.176 21.567-20.877 22.535v.022l-223.088 8.856a23.79 23.79 0 0 1-.932.019Zm.013-330.293a20.726 20.726 0 0 0-13.411 4.924A20.736 20.736 0 0 0 2 199.447v286.735c0 5.707 2.266 11.027 6.38 14.981a20.675 20.675 0 0 0 15.222 5.78l222.09-8.816.02.5-.02-.5a20.75 20.75 0 0 0 19.954-20.612l1.724-240.547c.072-10.27-7.226-18.952-17.356-20.642L26.199 178.953a20.853 20.853 0 0 0-3.437-.286Z"/><path fill="#090814" d="M100.322 359.143h-.053l-67.145-.303c-6.96-.032-12.624-5.72-12.624-12.682v-84.346c0-3.594 1.533-7.032 4.207-9.434a12.725 12.725 0 0 1 9.826-3.176l67.14 7.203a12.66 12.66 0 0 1 11.33 12.61v77.447c0 3.398-1.326 6.59-3.735 8.988a12.6 12.6 0 0 1-8.946 3.693Zm-67.13-108.012c-2.627 0-5.182.968-7.148 2.735a10.693 10.693 0 0 0-3.544 7.946v84.346c0 5.864 4.77 10.655 10.634 10.682l67.14.303.048 1v-1c2.844 0 5.52-1.105 7.535-3.11a10.61 10.61 0 0 0 3.146-7.571v-77.447a10.663 10.663 0 0 0-9.542-10.622l-67.14-7.202c-.377-.04-.754-.06-1.129-.06ZM232.317 358.822H130.682c-6.994 0-12.682-5.69-12.682-12.682v-70.698c0-3.53 1.488-6.927 4.083-9.322a12.748 12.748 0 0 1 9.618-3.32l101.636 8.197c6.54.528 11.663 6.08 11.663 12.641v62.502c0 6.993-5.69 12.682-12.683 12.682ZM130.693 264.76c-2.674 0-5.279 1.008-7.255 2.83a10.716 10.716 0 0 0-3.438 7.852v70.698c0 5.89 4.792 10.682 10.682 10.682h101.635c5.891 0 10.683-4.792 10.683-10.682v-62.502c0-5.526-4.315-10.203-9.823-10.647l-101.636-8.197a10.73 10.73 0 0 0-.848-.034Z"/><path fill="#090814" d="M133 277.822v7.015l53 1.985v-5.926l-53-3.074zM133 294.689v6.897l91 3.236v-5.067l-91-5.066zM133 307.497v6.651l50 1.674v-5.5l-50-2.825zM32.371 438.18a11.8 11.8 0 0 1-8.336-3.42 11.79 11.79 0 0 1-3.535-8.455v-42.667c0-6.548 5.327-11.875 11.875-11.875h53.249c6.549 0 11.876 5.327 11.876 11.875v41.947c0 6.46-5.255 11.787-11.715 11.875l-53.414.72Zm.004-64.417c-5.445 0-9.875 4.43-9.875 9.875v42.667a9.804 9.804 0 0 0 2.94 7.03 9.812 9.812 0 0 0 6.931 2.846l.139-.001 53.248-.72c5.372-.073 9.742-4.503 9.742-9.875v-41.947c0-5.445-4.43-9.875-9.876-9.875H32.375ZM119.423 435.41a11.803 11.803 0 0 1-8.307-3.395 11.786 11.786 0 0 1-3.562-8.48v-39.897c0-6.548 5.327-11.875 11.876-11.875h44.194c6.549 0 11.876 5.327 11.876 11.875v39.013c0 6.419-5.222 11.745-11.64 11.874l-44.437.885Zm.007-61.647c-5.446 0-9.876 4.43-9.876 9.875v39.897a9.796 9.796 0 0 0 2.963 7.052 9.81 9.81 0 0 0 6.906 2.823l.204-.002 44.194-.883c5.337-.107 9.679-4.536 9.679-9.874v-39.013c0-5.445-4.43-9.875-9.876-9.875H119.43ZM194.547 432.363c-3.112 0-6.055-1.2-8.286-3.377a11.785 11.785 0 0 1-3.582-8.499v-36.849c0-6.548 5.327-11.875 11.876-11.875h38.16c6.491 0 11.818 5.28 11.876 11.77l.318 35.907c.057 6.446-5.14 11.82-11.584 11.977l-38.778.946Zm.008-58.6c-5.446 0-9.876 4.43-9.876 9.875v36.85a9.797 9.797 0 0 0 2.978 7.067 9.815 9.815 0 0 0 6.89 2.808l.253-.004 38.476-.941c5.359-.132 9.68-4.6 9.633-9.96l-.318-35.908c-.048-5.397-4.478-9.787-9.875-9.787h-38.161Z"/><path fill="#090814" d="M34.5 390.322v4.847h42.815l.775-4.847H34.5zM79.719 343.946l-23.302-29.127-25.21 25.21-1.414-1.414 26.79-26.79 24.698 30.872-1.562 1.249z"/><path fill="#090814" d="m95.163 341.986-14.868-22.74-11.133 9.826-1.324-1.5 12.867-11.354 16.132 24.673-1.674 1.095z"/><path fill="#fff" d="M535.099 150.942a21.554 21.554 0 0 1-13.86-5.046 21.563 21.563 0 0 1-7.739-16.574V53.419a21.586 21.586 0 0 1 16.375-20.972L653.048 1.654a21.501 21.501 0 0 1 18.413 3.83 21.502 21.502 0 0 1 8.444 16.804l1.32 84.48a21.532 21.532 0 0 1-17.817 21.62l-124.493 22.215a21.711 21.711 0 0 1-3.816.339Z" opacity=".5"/><path fill="#090814" d="M535.099 151.942a22.626 22.626 0 0 1-14.501-5.28 22.559 22.559 0 0 1-8.098-17.34V53.419a22.584 22.584 0 0 1 17.133-21.942L652.806.683a22.499 22.499 0 0 1 19.264 4.008 22.499 22.499 0 0 1 8.835 17.581l1.32 84.48a22.527 22.527 0 0 1-18.641 22.62l-124.493 22.215c-1.318.236-2.66.355-3.992.355ZM658.33 2a20.75 20.75 0 0 0-5.04.624L530.117 33.417A20.587 20.587 0 0 0 514.5 53.42v75.903c0 6.118 2.69 11.88 7.38 15.807 4.641 3.886 10.897 5.554 16.86 4.49l124.492-22.216a20.536 20.536 0 0 0 16.994-20.619l-1.32-84.48a20.506 20.506 0 0 0-8.054-16.027C667.198 3.47 662.813 2 658.33 2Z"/><path fill="#090814" d="M552 54.822v7.94l80-16.94 3-9-83 18zM552 73.822v7.94l80-16.94 3-9-83 18zM552 92.822v7.94l80-16.94 3-9-83 18zM552 111.822v7.94l80-16.94 3-9-83 18z"/><path fill="#ed9da0" d="m342.898 593.159 213.16-4.44 10.311 73.266-222.125-10.18c-10.144 10.956-25.919 18.199-43.813 18.61-31.31.718-57.174-19.705-57.769-45.617-.594-25.912 24.305-47.5 55.616-48.219 17.894-.41 33.984 6.102 44.62 16.58Z"/><path fill="#6c63ff" d="M555 430.822s-7 44 14 59c0 0-7 54 10 71 0 0-31.24 1.265-25.12 17.632 0 0-45.88-7.632-39.88 11.368 0 0 42.459 50.959 32.23 83.98l138.77-6.98 15.488-79.904"/></svg>