<svg xmlns="http://www.w3.org/2000/svg" width="805.122" height="744.568"><defs><clipPath id="a"><circle cx="347" cy="347" r="347" fill="#fff" stroke="#e6e6e6" transform="translate(0 -.037)"/></clipPath></defs><g fill="none" stroke="#e6e6e6" stroke-width="3" transform="translate(0 50.568)"><circle cx="347" cy="347" r="347" stroke="none"/><circle cx="347" cy="347" r="345.5"/></g><path fill="#d6d6e3" d="M391.62 0h20.655a2.89 2.89 0 0 1 2.876 2.875v20.663a2.881 2.881 0 0 1-2.876 2.866h-20.66a2.869 2.869 0 0 1-2.869-2.866V2.876A2.881 2.881 0 0 1 391.62 0Zm20.655 25.476a1.951 1.951 0 0 0 1.948-1.941V2.875a1.96 1.96 0 0 0-1.95-1.948h-20.65a1.952 1.952 0 0 0-1.948 1.948v20.661a1.941 1.941 0 0 0 1.941 1.939ZM412.272 35.672H391.62a2.413 2.413 0 0 0-2.412 2.415v20.661a2.405 2.405 0 0 0 2.412 2.4h20.652a2.411 2.411 0 0 0 2.412-2.4V38.087a2.419 2.419 0 0 0-2.412-2.412ZM412.272 70.881H391.62a2.413 2.413 0 0 0-2.412 2.412v20.653a2.407 2.407 0 0 0 2.412 2.412h20.652a2.413 2.413 0 0 0 2.412-2.412V73.293a2.419 2.419 0 0 0-2.412-2.412ZM414.647 108.074a2.428 2.428 0 0 0-2.375-1.986H391.62a2.413 2.413 0 0 0-2.412 2.412v20.652a2.407 2.407 0 0 0 2.412 2.412h20.652a2.413 2.413 0 0 0 2.412-2.412v-20.648a2.147 2.147 0 0 0-.037-.427ZM413.209 141.483a2.444 2.444 0 0 0-.937-.186H391.62a2.407 2.407 0 0 0-2.412 2.412v20.654a2.4 2.4 0 0 0 2.412 2.412h20.652a2.414 2.414 0 0 0 2.412-2.412V143.71a2.427 2.427 0 0 0-1.475-2.227ZM455.654.464h-20.652a2.413 2.413 0 0 0-2.412 2.412v20.661a2.405 2.405 0 0 0 2.412 2.4h20.652a2.411 2.411 0 0 0 2.412-2.4V2.876a2.419 2.419 0 0 0-2.412-2.412Z"/><path fill="#6c63ff" d="M455.654 35.672h-20.652a2.413 2.413 0 0 0-2.412 2.415v20.661a2.405 2.405 0 0 0 2.412 2.4h20.652a2.411 2.411 0 0 0 2.412-2.4V38.087a2.419 2.419 0 0 0-2.412-2.412ZM455.654 70.881h-20.652a2.413 2.413 0 0 0-2.412 2.412v20.653a2.407 2.407 0 0 0 2.412 2.412h20.652a2.413 2.413 0 0 0 2.412-2.412V73.293a2.419 2.419 0 0 0-2.412-2.412ZM455.654 106.089h-20.652a2.4 2.4 0 0 0-2.282 1.651 2.3 2.3 0 0 0-.13.761v20.652a2.407 2.407 0 0 0 2.412 2.412h20.652a2.413 2.413 0 0 0 2.412-2.412v-20.649a2.42 2.42 0 0 0-2.412-2.415Z"/><path fill="#d6d6e3" d="M455.654 141.298h-20.652a2.407 2.407 0 0 0-2.412 2.412v20.653a2.407 2.407 0 0 0 2.412 2.412h20.652a2.413 2.413 0 0 0 2.412-2.412V143.71a2.413 2.413 0 0 0-2.412-2.412Z"/><path fill="#6c63ff" d="M499.036.464h-20.653a2.413 2.413 0 0 0-2.412 2.412v20.661a2.405 2.405 0 0 0 2.412 2.4h20.652a2.411 2.411 0 0 0 2.412-2.4V2.876a2.419 2.419 0 0 0-2.412-2.412ZM499.036 35.672h-20.653a2.413 2.413 0 0 0-2.411 2.415v20.661a2.405 2.405 0 0 0 2.412 2.4h20.652a2.411 2.411 0 0 0 2.412-2.4V38.087a2.419 2.419 0 0 0-2.412-2.412Z"/><path fill="#d6d6e3" d="M499.036 70.881h-20.653a2.413 2.413 0 0 0-2.412 2.412v20.653a2.407 2.407 0 0 0 2.412 2.412h20.652a2.413 2.413 0 0 0 2.412-2.412V73.293a2.419 2.419 0 0 0-2.411-2.412Z"/><path fill="#6c63ff" d="M499.036 106.089h-20.653a2.413 2.413 0 0 0-2.412 2.412v20.652a2.407 2.407 0 0 0 2.412 2.412h20.652a2.413 2.413 0 0 0 2.412-2.412v-20.649a2.419 2.419 0 0 0-2.411-2.415ZM499.036 141.298h-20.653a2.407 2.407 0 0 0-2.412 2.412v20.653a2.407 2.407 0 0 0 2.412 2.412h20.652a2.414 2.414 0 0 0 2.412-2.412V143.71a2.413 2.413 0 0 0-2.412-2.412ZM542.418.464h-20.652a2.413 2.413 0 0 0-2.412 2.412v20.661a2.406 2.406 0 0 0 2.412 2.4h20.652a2.411 2.411 0 0 0 2.412-2.4V2.876a2.419 2.419 0 0 0-2.412-2.412Z"/><path fill="#d6d6e3" d="M521.766 35.209h20.652a2.89 2.89 0 0 1 2.876 2.875v20.663a2.881 2.881 0 0 1-2.875 2.867h-20.66a2.869 2.869 0 0 1-2.869-2.866V38.085a2.881 2.881 0 0 1 2.876-2.876Zm20.652 25.476a1.951 1.951 0 0 0 1.948-1.941v-20.66a1.96 1.96 0 0 0-1.95-1.948h-20.65a1.952 1.952 0 0 0-1.948 1.948v20.661a1.941 1.941 0 0 0 1.941 1.939ZM521.766 70.417h20.652a2.89 2.89 0 0 1 2.876 2.875v20.653a2.881 2.881 0 0 1-2.876 2.876h-20.657a2.852 2.852 0 0 1-2.03-.841 2.891 2.891 0 0 1-.841-2.036V73.293a2.881 2.881 0 0 1 2.876-2.876Zm20.652 25.476a1.952 1.952 0 0 0 1.948-1.948V73.293a1.96 1.96 0 0 0-1.95-1.948h-20.65a1.952 1.952 0 0 0-1.948 1.949v20.652a1.957 1.957 0 0 0 .569 1.379 1.931 1.931 0 0 0 1.374.569ZM542.418 106.089h-20.652a2.413 2.413 0 0 0-2.412 2.412v20.652a2.407 2.407 0 0 0 2.412 2.412h20.652a2.413 2.413 0 0 0 2.412-2.412v-20.649a2.419 2.419 0 0 0-2.412-2.415Z"/><path fill="#6c63ff" d="M542.418 141.298h-20.652a2.407 2.407 0 0 0-2.412 2.412v20.653a2.408 2.408 0 0 0 2.412 2.412h20.652a2.413 2.413 0 0 0 2.412-2.412V143.71a2.413 2.413 0 0 0-2.412-2.412Z"/><path fill="#d6d6e3" d="M565.137 0H585.8a2.89 2.89 0 0 1 2.876 2.875v20.663a2.881 2.881 0 0 1-2.875 2.867h-20.663a2.871 2.871 0 0 1-2.866-2.867V2.876A2.88 2.88 0 0 1 565.137 0ZM585.8 25.476a1.951 1.951 0 0 0 1.948-1.941V2.875a1.96 1.96 0 0 0-1.95-1.948H565.14a1.951 1.951 0 0 0-1.941 1.948v20.661a1.942 1.942 0 0 0 1.939 1.939ZM565.137 35.209H585.8a2.89 2.89 0 0 1 2.876 2.875v20.663a2.881 2.881 0 0 1-2.875 2.867h-20.663a2.87 2.87 0 0 1-2.866-2.867V38.085a2.88 2.88 0 0 1 2.865-2.876Zm0 25.476h20.662a1.951 1.951 0 0 0 1.948-1.941v-20.66a1.96 1.96 0 0 0-1.95-1.948H565.14a1.951 1.951 0 0 0-1.941 1.948v20.661a1.941 1.941 0 0 0 1.939 1.94ZM565.137 70.417H585.8a2.89 2.89 0 0 1 2.876 2.875v20.653a2.881 2.881 0 0 1-2.876 2.876h-20.661a2.869 2.869 0 0 1-2.867-2.877V73.293a2.88 2.88 0 0 1 2.865-2.876Zm0 25.476h20.661a1.952 1.952 0 0 0 1.948-1.948V73.293a1.96 1.96 0 0 0-1.95-1.948H565.14a1.951 1.951 0 0 0-1.941 1.948v20.652a1.942 1.942 0 0 0 1.939 1.948Z"/><path fill="#6c63ff" d="M585.8 106.089h-20.661a2.411 2.411 0 0 0-2.4 2.412v20.652a2.405 2.405 0 0 0 2.4 2.412H585.8a2.413 2.413 0 0 0 2.412-2.412v-20.649a2.42 2.42 0 0 0-2.412-2.412Z"/><path fill="#d6d6e3" d="M585.8 141.298h-20.661a2.406 2.406 0 0 0-2.4 2.412v20.653a2.405 2.405 0 0 0 2.4 2.412H585.8a2.413 2.413 0 0 0 2.412-2.412V143.71a2.413 2.413 0 0 0-2.412-2.412ZM608.519 0h20.666a2.89 2.89 0 0 1 2.876 2.875v20.663a2.881 2.881 0 0 1-2.875 2.867H608.52a2.87 2.87 0 0 1-2.866-2.867V2.876A2.88 2.88 0 0 1 608.519 0Zm20.666 25.476a1.951 1.951 0 0 0 1.948-1.941V2.875a1.96 1.96 0 0 0-1.95-1.948h-20.661a1.951 1.951 0 0 0-1.941 1.948v20.661a1.942 1.942 0 0 0 1.939 1.939ZM608.519 35.209h20.666a2.89 2.89 0 0 1 2.876 2.875v20.663a2.881 2.881 0 0 1-2.875 2.867H608.52a2.871 2.871 0 0 1-2.866-2.867V38.085a2.88 2.88 0 0 1 2.865-2.876Zm0 25.476h20.666a1.951 1.951 0 0 0 1.948-1.941v-20.66a1.96 1.96 0 0 0-1.95-1.948h-20.661a1.951 1.951 0 0 0-1.941 1.948v20.661a1.942 1.942 0 0 0 1.939 1.94Z"/><path fill="#6c63ff" d="M629.182 70.881h-20.661a2.411 2.411 0 0 0-2.4 2.412v20.653a2.405 2.405 0 0 0 2.4 2.412h20.661a2.413 2.413 0 0 0 2.412-2.412V73.293a2.419 2.419 0 0 0-2.412-2.412Z"/><path fill="#d6d6e3" d="M629.182 106.089h-20.661a2.412 2.412 0 0 0-2.4 2.412v20.652a2.405 2.405 0 0 0 2.4 2.412h20.661a2.413 2.413 0 0 0 2.412-2.412v-20.649a2.419 2.419 0 0 0-2.412-2.412ZM608.52 140.834h20.665a2.881 2.881 0 0 1 2.876 2.876v20.652a2.881 2.881 0 0 1-2.876 2.876h-20.664a2.869 2.869 0 0 1-2.867-2.878v-20.65a2.869 2.869 0 0 1 2.866-2.876Zm20.665 25.476a1.952 1.952 0 0 0 1.948-1.949V143.71a1.952 1.952 0 0 0-1.949-1.948h-20.66a1.942 1.942 0 0 0-1.94 1.947v20.653a1.941 1.941 0 0 0 1.939 1.948Z"/><path fill="#6c63ff" d="M672.564.464h-20.661a2.411 2.411 0 0 0-2.4 2.412v20.661a2.4 2.4 0 0 0 2.4 2.4h20.662a2.411 2.411 0 0 0 2.412-2.4V2.876a2.419 2.419 0 0 0-2.413-2.412ZM672.564 35.672h-20.661a2.411 2.411 0 0 0-2.4 2.412v20.661a2.4 2.4 0 0 0 2.4 2.4h20.662a2.411 2.411 0 0 0 2.412-2.4V38.087a2.419 2.419 0 0 0-2.413-2.415Z"/><path fill="#d6d6e3" d="M672.564 70.881h-20.661a2.411 2.411 0 0 0-2.4 2.412v20.653a2.405 2.405 0 0 0 2.4 2.412h20.661a2.413 2.413 0 0 0 2.412-2.412V73.293a2.419 2.419 0 0 0-2.412-2.412ZM651.901 105.625h20.663a2.89 2.89 0 0 1 2.876 2.875v20.653a2.881 2.881 0 0 1-2.876 2.876h-20.657a2.869 2.869 0 0 1-2.867-2.877v-20.651a2.881 2.881 0 0 1 2.861-2.876Zm20.663 25.476a1.952 1.952 0 0 0 1.948-1.948v-20.652a1.96 1.96 0 0 0-1.95-1.948h-20.655a1.951 1.951 0 0 0-1.941 1.948v20.652a1.942 1.942 0 0 0 1.94 1.948Z"/><path fill="#6c63ff" d="M672.564 141.298h-20.661a2.405 2.405 0 0 0-2.4 2.412v20.653a2.405 2.405 0 0 0 2.4 2.412h20.661a2.413 2.413 0 0 0 2.412-2.412V143.71a2.413 2.413 0 0 0-2.412-2.412ZM715.946.464h-20.661a2.411 2.411 0 0 0-2.4 2.412v20.661a2.4 2.4 0 0 0 2.4 2.4h20.662a2.411 2.411 0 0 0 2.412-2.4V2.876a2.419 2.419 0 0 0-2.413-2.412ZM715.946 35.672h-20.661a2.411 2.411 0 0 0-2.4 2.412v20.661a2.4 2.4 0 0 0 2.4 2.4h20.662a2.411 2.411 0 0 0 2.412-2.4V38.087a2.419 2.419 0 0 0-2.413-2.415Z"/><path fill="#d6d6e3" d="M715.946 70.881h-20.661a2.411 2.411 0 0 0-2.4 2.412v20.653a2.405 2.405 0 0 0 2.4 2.412h20.661a2.413 2.413 0 0 0 2.412-2.412V73.293a2.419 2.419 0 0 0-2.412-2.412Z"/><path fill="#6c63ff" d="M715.946 106.089h-20.661a2.411 2.411 0 0 0-2.4 2.412v20.652a2.405 2.405 0 0 0 2.4 2.412h20.661a2.413 2.413 0 0 0 2.412-2.412v-20.649a2.419 2.419 0 0 0-2.412-2.412ZM715.946 141.298h-20.661a2.405 2.405 0 0 0-2.4 2.412v20.653a2.405 2.405 0 0 0 2.4 2.412h20.661a2.413 2.413 0 0 0 2.412-2.412V143.71a2.413 2.413 0 0 0-2.412-2.412Z"/><path fill="#d6d6e3" d="M759.328.464h-20.661a2.411 2.411 0 0 0-2.4 2.412v20.661a2.4 2.4 0 0 0 2.4 2.4h20.662a2.411 2.411 0 0 0 2.412-2.4V2.876a2.419 2.419 0 0 0-2.413-2.412Z"/><path fill="#6c63ff" d="M759.328 35.672h-20.661a2.411 2.411 0 0 0-2.4 2.412v20.661a2.4 2.4 0 0 0 2.4 2.4h20.662a2.411 2.411 0 0 0 2.412-2.4V38.087a2.419 2.419 0 0 0-2.413-2.415ZM759.328 70.881h-20.661a2.411 2.411 0 0 0-2.4 2.412v20.653a2.405 2.405 0 0 0 2.4 2.412h20.661a2.413 2.413 0 0 0 2.412-2.412V73.293a2.419 2.419 0 0 0-2.412-2.412ZM759.328 106.089h-20.661a2.411 2.411 0 0 0-2.4 2.412v20.652a2.405 2.405 0 0 0 2.4 2.412h20.661a2.413 2.413 0 0 0 2.412-2.412v-20.649a2.419 2.419 0 0 0-2.412-2.412Z"/><path fill="#d6d6e3" d="M759.328 141.298h-20.661a2.406 2.406 0 0 0-2.4 2.412v20.653a2.405 2.405 0 0 0 2.4 2.412h20.661a2.413 2.413 0 0 0 2.412-2.412V143.71a2.413 2.413 0 0 0-2.412-2.412ZM802.71.464h-20.661a2.411 2.411 0 0 0-2.4 2.412v20.661a2.4 2.4 0 0 0 2.4 2.4h20.662a2.411 2.411 0 0 0 2.412-2.4V2.876a2.419 2.419 0 0 0-2.412-2.412ZM802.71 35.672h-20.661a2.411 2.411 0 0 0-2.4 2.412v20.661a2.4 2.4 0 0 0 2.4 2.4h20.662a2.411 2.411 0 0 0 2.412-2.4V38.087a2.419 2.419 0 0 0-2.413-2.415Z"/><path fill="#6c63ff" d="M802.71 70.881h-20.661a2.411 2.411 0 0 0-2.4 2.412v20.653a2.405 2.405 0 0 0 2.4 2.412h20.661a2.413 2.413 0 0 0 2.412-2.412V73.293a2.419 2.419 0 0 0-2.412-2.412Z"/><path fill="#d6d6e3" d="M802.71 106.089h-20.661a2.412 2.412 0 0 0-2.4 2.412v20.652a2.405 2.405 0 0 0 2.4 2.412h20.661a2.413 2.413 0 0 0 2.412-2.412v-20.649a2.419 2.419 0 0 0-2.412-2.412ZM802.71 141.298h-20.661a2.405 2.405 0 0 0-2.4 2.412v20.653a2.406 2.406 0 0 0 2.4 2.412h20.661a2.413 2.413 0 0 0 2.412-2.412V143.71a2.413 2.413 0 0 0-2.412-2.412Z"/><g clip-path="url(#a)" transform="translate(0 50.605)"><g transform="translate(26.24 75.739)"><path fill="#ed9da0" d="M182.76 148.224h56v52h-56z"/><path fill="#090814" d="M328.143 618.526q-3.484.083-7 .083c-55.6 0-136.622-18.062-200.085-61.573-5.251-3.6.634-20.654 0-53.552l136.928-19.242 68.728 55.615Z"/><path fill="#2f2e41" d="M256.564 543.666h-.575l.492-.065Z"/><circle cx="63.386" cy="63.386" r="63.386" fill="#ed9da0" transform="translate(143.747 31.877)"/><path fill="#090814" d="M262.642 48.79s16.578-31.693-19.895-34.574c0 0-31.094-28.206-62.787-5.156 0 0-17.287 0-26.74 19.562 0 0-13.6-5.156-16.584 8.644 0 0-9.949 28.812 0 54.743s13.253 28.812 13.253 28.812-16.348-54.365 23.444-57.246 84.321-27.749 87.637 3.944 8.306 39.5 8.306 39.5 31.498-45.263-6.634-58.229Z"/><path fill="#f2f2f2" d="m371.099 251.477-.2 1.076-2.292 12.1-15.837 83.684-.937 4.926-1.967 10.419-2.69 14.213-5.966 31.5-1.707 9.027-.64 3.386-.223 1.188-1.772 9.343-.538 2.82-4.323 32.035v31.956l-3.618 44.445.009.065-211.336-2.846c-8.164-5.288-17.291-58.191-11.3-107.715l-.037-.77-.51-10.53-.065-1.355-.1-2.032-1.958-40.525-.037-.668-.594-12.284-.557-11.68-.241-4.926-2.384-49.292-1.614-33.473-1.41-29.141 5.669-1.92 60.629-20.606 25.11-32.647 52.27.39 25.588.195 42.7 39.6 9.714 4.639.074.037 6.967 3.331 17.664 8.433 18.676 8.925 9.584 4.574Z"/><path fill="#ed9da0" d="M194.414 448.574a28.1 28.1 0 0 1-37.726-20.81l-98.861-14.026 34.367-38.875 88.611 19.279a28.25 28.25 0 0 1 13.609 54.432Z"/><path fill="#f2f2f2" d="M150.339 377.894a12.546 12.546 0 0 0-7.32-4.518l-40.562-8.433-4.166-.863a17.565 17.565 0 0 1-11.625-8.415 17.776 17.776 0 0 1-2.273-7.329 17.529 17.529 0 0 1 .826-6.94l14.056-42.352 9.12-27.48a38.775 38.775 0 0 0 1.939-10.252 40.217 40.217 0 0 0-8.415-26.8 39.609 39.609 0 0 0-45.469-12.655c-.232.084-.473.176-.705.269a39.507 39.507 0 0 0-23.482 26.358l-9.908 36.043-20.439 74.3a53.593 53.593 0 0 0 45.423 67.429l58.421 6.847 27.035 3.173a12.522 12.522 0 0 0 13.768-9.955 4.536 4.536 0 0 0 .1-.51l.65-4.008 5.5-33.752.056-.343a12.5 12.5 0 0 0-2.53-9.814Z"/><path fill="#ed9da0" d="M257.391 449.655a28.1 28.1 0 0 0 34.415-25.922l95.895-27.827-39.51-33.642-85.007 31.582a28.25 28.25 0 0 0-5.793 55.809Z"/><path fill="#f2f2f2" d="m435.31 333.658-45.609-104.967a39.726 39.726 0 0 0-18.806-19.808 40.228 40.228 0 0 0-8.146-2.969 25.666 25.666 0 0 0-1.308-.3 39.088 39.088 0 0 0-18.073.334 39.721 39.721 0 0 0-25.365 20.16.922.922 0 0 0-.074.13 39.986 39.986 0 0 0-.343 36.044l.566 1.132 32.23 64.73a17.535 17.535 0 0 1-9.741 24.3l-2.264.817-40.71 14.7a12.522 12.522 0 0 0-7.728 15.577l.1.325 11.411 36.516c.056.167.111.334.176.5a6.558 6.558 0 0 0 .371.918 12.508 12.508 0 0 0 14.668 6.986l21.969-5.8 4.481-1.188 56.736-14.972a53.588 53.588 0 0 0 35.459-73.163Z"/><path fill="#090814" d="M8.501 421.804c8.514 16.192 11.264 31.2 26.383 45.386h413.284a15.258 15.258 0 0 1 15.234 15.243l.6 106.256a329.75 329.75 0 0 0 71.873-45.024q9.129-7.5 17.692-15.651 5.608-5.316 10.948-10.892c26.686-27.8 57.488-60.06 73.041-95.318Z"/><path fill="#fff" d="M564.518 517.122q-5.33 5.581-10.947 10.892h-89.26v-10.892Z"/><path fill="#090814" d="M370.264 168.757a5.138 5.138 0 0 0-4.518-2.69H61.59a5.153 5.153 0 0 0-5.14 5.149v182.045h314.445V171.216a5 5 0 0 0-.631-2.459Z"/><path fill="#090814" d="M56.174 348.332v22.465a7.092 7.092 0 0 0 7.092 7.092h116.059v44.334h-1.542a.921.921 0 0 0-.921.921v3.083a.921.921 0 0 0 .921.921h72.049a.921.921 0 0 0 .921-.921v-3.087a.921.921 0 0 0-.921-.921h-1.542v-44.33h116.06a7.092 7.092 0 0 0 7.092-7.092v-22.465Z"/><circle cx="29.045" cy="29.045" r="29.045" fill="#6c63ff" transform="translate(180.954 225.766)"/><path fill="#6c63ff" d="M284.002 91.8h-4.635c0-35.069-34.707-58.05-69.721-58.068a76.43 76.43 0 0 0-15.169 1.475c-5.622 1.123-11.458 2.468-17.191 4.221-22.609 6.93-43.577 20.327-43.577 52.372a72.911 72.911 0 0 0 2.356 18.444l-4.49 1.169a77.815 77.815 0 0 1-2.5-19.613c0-28 11.495-47.232 31.349-58.7 10.437-6.03 23.175-9.918 37.769-11.81a90.114 90.114 0 0 1 18.323-.557c40.251 2.895 67.486 33.771 67.486 71.067Z"/><path fill="#6c63ff" d="m291.729 94.37-1.83-13.509a14.764 14.764 0 0 0-16.932-12.58l-2.9.4a6.106 6.106 0 0 0-5.232 6.865l4.221 31.117a6.1 6.1 0 0 0 4.917 5.168 5.712 5.712 0 0 0 1.132.111 6.029 6.029 0 0 0 .815-.055l3.248-.436a14.651 14.651 0 0 0 9.964-5.965c.25-.353.492-.714.714-1.086a15.539 15.539 0 0 0 1.883-10.03Z"/><path fill="#090814" d="m291.729 94.37-1.825-13.512a14.575 14.575 0 0 0-4.639-8.869l4.2 30.959a5.73 5.73 0 0 0 .38 1.447 15.538 15.538 0 0 0 1.883-10.029Z"/><path fill="#6c63ff" d="m150.414 123.994-7.144-29.7a5.589 5.589 0 0 0-4.527-4.221 6.247 6.247 0 0 0-.928-.074 5.59 5.59 0 0 0-1.3.158l-2.765.668a13.827 13.827 0 0 0-10.2 16.663l3.2 13.323a14.7 14.7 0 0 0 4.954 8 13.028 13.028 0 0 0 1.262.9 13.74 13.74 0 0 0 10.549 1.707l2.755-.668a5.418 5.418 0 0 0 2.013-.937 5.56 5.56 0 0 0 2.131-5.819Z"/><path fill="#090814" d="M125.169 101.607a6.009 6.009 0 0 0-1.085-2.273 13.662 13.662 0 0 0-.529 8.155l3.2 13.323a14.7 14.7 0 0 0 4.954 8Z"/></g></g></svg>