<svg xmlns="http://www.w3.org/2000/svg" style="display: none;">
  
  <!-- === ТЕХНОЛОГІЇ === -->
  
  <!-- React -->
  <symbol id="icon-react" viewBox="0 0 24 24">
    <path fill="currentColor" d="M12.53.469c-2.457 0-4.448 1.99-4.448 4.448 0 2.458 1.99 4.449 4.448 4.449 2.459 0 4.449-1.991 4.449-4.449 0-2.458-1.99-4.448-4.449-4.448zm0 6.327c-1.137 0-2.068-.93-2.068-2.068s.931-2.068 2.068-2.068c1.138 0 2.069.93 2.069 2.068s-.931 2.068-2.069 2.068z"/>
    <path fill="currentColor" d="M23.671 11.17c-.163 0-.327-.026-.483-.08l-9.518-3.401-9.518 3.401c-.514.184-.834.688-.834 1.24v7.18c0 .552.32.1056.834.124l9.518 3.402 9.518-3.402c.514-.184.834-.688.834-1.24v-7.18c0-.552-.32-1.056-.834-1.24-.156-.054-.32-.08-.483-.08zM12 20.712l-7.932-2.833V12.32L12 9.488l7.932 2.832v5.559L12 20.712z"/>
  </symbol>

  <!-- JavaScript -->
  <symbol id="icon-javascript" viewBox="0 0 24 24">
    <path fill="currentColor" d="M11.472 21.792H7.008V3.216h5.088c2.4 0 4.08.768 4.08 3.456 0 2.304-1.728 3.168-4.08 3.168H11.04v5.328h.432c2.88 0 5.184-.96 5.184-4.32 0-3.744-2.64-4.56-5.232-4.56H6V21.792h5.472z"/>
  </symbol>

  <!-- Next.js -->
  <symbol id="icon-nextjs" viewBox="0 0 24 24">
    <path fill="currentColor" d="M12 0C5.373 0 0 5.373 0 12s5.373 12 12 12 12-5.373 12-12S18.627 0 12 0zm0 22.5C6.201 22.5 1.5 17.799 1.5 12S6.201 1.5 12 1.5 22.5 6.201 22.5 12 17.799 22.5 12 22.5z"/>
    <path fill="currentColor" d="M16.5 14.25H7.5V9.75h9v4.5zm-9-6H6v9h1.5v-9zm10.5 0h-1.5v9H16.5v-9z"/>
  </symbol>

  <!-- HTML5 -->
  <symbol id="icon-html" viewBox="0 0 24 24">
    <path fill="currentColor" d="M12 0C5.373 0 0 5.373 0 12s5.373 12 12 12 12-5.373 12-12S18.627 0 12 0zm-1.5 18v-6L6 6h3l3 4.5 3-4.5h3l-4.5 6.5V18h-1.5z"/>
  </symbol>

  <!-- CSS3 -->
  <symbol id="icon-css" viewBox="0 0 24 24">
    <path fill="currentColor" d="M12 0C5.373 0 0 5.373 0 12s5.373 12 12 12 12-5.373 12-12S18.627 0 12 0zm-2 16H8V8h2v8zm3 0h-2V8h2v8zm3 0h-2V8h2v8z"/>
  </symbol>

  <!-- Sass -->
  <symbol id="icon-sass" viewBox="0 0 24 24">
    <path fill="currentColor" d="M12 0C5.373 0 0 5.373 0 12s5.373 12 12 12 12-5.373 12-12S18.627 0 12 0zm-1.5 16.5v-9l6 4.5-6 4.5z"/>
  </symbol>

  <!-- Git -->
  <symbol id="icon-git" viewBox="0 0 24 24">
    <path fill="currentColor" d="M12 0C5.373 0 0 5.373 0 12s5.373 12 12 12 12-5.373 12-12S18.627 0 12 0zm0 22.5C6.201 22.5 1.5 17.799 1.5 12S6.201 1.5 12 1.5 22.5 6.201 22.5 12 17.799 22.5 12 22.5z"/>
    <path fill="currentColor" d="M12 6a6 6 0 100 12 6 6 0 000-12zm0 10.5a4.5 4.5 0 110-9 4.5 4.5 0 010 9z"/>
    <circle cx="12" cy="12" r="1.5" fill="currentColor"/>
  </symbol>

  <!-- GitHub -->
  <symbol id="icon-github" viewBox="0 0 24 24">
    <path fill="currentColor" d="M12 0C5.373 0 0 5.373 0 12c0 5.627 3.87 10.35 9 11.65 0.66.12 0.9-0.28 0.9-0.62 0-0.31-0.01-1.26-0.01-2.48 0-0.9-0.3-1.5-0.7-1.87C11.1 16.4 10.1 15.9 9.7 15c-0.4-1.06-1.4-1.4-2.4-1.4-1 0-1.8 0.44-2.4 1.32-0.7 1.1-0.7 2.3-0.7 2.6 0 0.34 0.1 0.74 0.9 0.62 5.1-1.3 9-6.02 9-11.65 0-6.627-5.373-12-12-12z"/>
    <circle cx="12" cy="12" r="2.25" fill="currentColor"/>
  </symbol>

  <!-- Vercel -->
  <symbol id="icon-vercel" viewBox="0 0 24 24">
    <path fill="currentColor" d="M12 0L0 24h24L12 0z"/>
  </symbol>

  <!-- Render -->
  <symbol id="icon-render" viewBox="0 0 24 24">
    <path fill="currentColor" d="M12 0C5.373 0 0 5.373 0 12s5.373 12 12 12 12-5.373 12-12S18.627 0 12 0zm0 22.5C6.201 22.5 1.5 17.799 1.5 12S6.201 1.5 12 1.5 22.5 6.201 22.5 12 17.799 22.5 12 22.5z"/>
    <path fill="currentColor" d="M12 4.5l7.5 9h-15l7.5-9zm0 13.5l-7.5-4.5h15l-7.5 4.5z"/>
  </symbol>

  <!-- Node.js -->
  <symbol id="icon-nodejs" viewBox="0 0 24 24">
    <path fill="currentColor" d="M12 0C5.373 0 0 5.373 0 12s5.373 12 12 12 12-5.373 12-12S18.627 0 12 0zm0 22.5C6.201 22.5 1.5 17.799 1.5 12S6.201 1.5 12 1.5 22.5 6.201 22.5 12 17.799 22.5 12 22.5z"/>
    <path fill="currentColor" d="M16.5 6c-1.05 0-2.01.33-2.82.87-.24-.3-.63-.48-.99-.48-.66 0-1.2.48-1.2 1.08 0 .36.18.66.42.87-.84 1.08-1.2 2.49-1.2 3.93 0 .51.12.99.36 1.41.24.39.63.63.99.63.66 0 1.2-.51 1.2-1.08 0-.36-.18-.66-.42-.87.84-1.08 1.2-2.49 1.2-3.93 0-.51-.12-.99-.36-1.41-.24-.39-.63-.63-.99-.63-.66 0-1.2.51-1.2 1.08 0 .36.18.66.42.87-.84 1.08-1.2 2.49-1.2 3.93 0 .51.12.99.36 1.41.24.39.63.63.99.63.66 0 1.2-.51 1.2-1.08 0-.36-.18-.66-.42-.87.84-1.08 1.2-2.49 1.2-3.93 0-.51-.12-.99-.36-1.41-.24-.39-.63-.63-.99-.63-.66 0-1.2.51-1.2 1.08z"/>
  </symbol>

  <!-- Express.js -->
  <symbol id="icon-expressjs" viewBox="0 0 24 24">
    <path fill="currentColor" d="M2 6h20v2H2zm0 5h20v2H2zm0 5h20v2H2z"/>
    <path fill="currentColor" d="M22 4H2v2h20V4zm0 7H2v2h20v-2zm0 7H2v2h20v-2z"/>
  </symbol>

  <!-- MongoDB -->
  <symbol id="icon-mongodb" viewBox="0 0 24 24">
    <path fill="currentColor" d="M12 0C5.373 0 0 5.373 0 12s5.373 12 12 12 12-5.373 12-12S18.627 0 12 0zm0 22.5C6.201 22.5 1.5 17.799 1.5 12S6.201 1.5 12 1.5 22.5 6.201 22.5 12 17.799 22.5 12 22.5z"/>
    <path fill="currentColor" d="M12 6c-3.315 0-6 2.685-6 6s2.685 6 6 6 6-2.685 6-6-2.685-6-6-6zm0 10.5c-2.48 0-4.5-2.02-4.5-4.5s2.02-4.5 4.5-4.5 4.5 2.02 4.5 4.5-2.02 4.5-4.5 4.5z"/>
    <circle cx="12" cy="12" r="2.25" fill="currentColor"/>
  </symbol>

  <!-- === НОВІ ТЕХНОЛОГІЇ === -->
  
  <!-- Slack -->
  <symbol id="icon-slack" viewBox="0 0 24 24">
    <path fill="currentColor" d="M5.5 14.5c0 1.1-.9 2-2 2s-2-.9-2-2 .9-2 2-2h2v2zm1 0c0-1.1.9-2 2-2s2 .9 2 2v5c0 1.1-.9 2-2 2s-2-.9-2-2v-5zM9.5 5.5c-1.1 0-2-.9-2-2s.9-2 2-2 2 .9 2 2v2h-2zm0 1c1.1 0 2 .9 2 2s-.9 2-2 2h-5c-1.1 0-2-.9-2-2s.9-2 2-2h5zM18.5 9.5c0-1.1.9-2 2-2s2 .9 2 2-.9 2-2 2h-2v-2zm-1 0c0 1.1-.9 2-2 2s-2-.9-2-2v-5c0-1.1.9-2 2-2s2 .9 2 2v5zM14.5 18.5c1.1 0 2 .9 2 2s-.9 2-2 2-2-.9-2-2v-2h2zm0-1c-1.1 0-2-.9-2-2s.9-2 2-2h5c1.1 0 2 .9 2 2s-.9 2-2 2h-5z"/>
  </symbol>

  <!-- Discord -->
  <symbol id="icon-discord" viewBox="0 0 24 24">
    <path fill="currentColor" d="M20.5 4.5c-1.6-1.2-3.5-2-5.5-2.5-.2.4-.4.8-.5 1.2-2-.3-4-.3-6 0-.2-.4-.4-.8-.5-1.2-2 .5-3.9 1.3-5.5 2.5-3.5 5-4.5 10-4 15 2.3 1.7 5 2.9 8 3.5.6-.9 1.2-1.8 1.6-2.8-1-.4-2-.9-2.8-1.5.2-.2.5-.4.7-.6 2.8 1.3 5.9 1.3 8.7 0 .2.2.5.4.7.6-.9.6-1.8 1.1-2.8 1.5.5 1 1.1 1.9 1.6 2.8 3-.6 5.7-1.8 8-3.5.5-5-.5-10-4-15zM8.5 15c-1.4 0-2.5-1.1-2.5-2.5S7.1 10 8.5 10s2.5 1.1 2.5 2.5S9.9 15 8.5 15zm7 0c-1.4 0-2.5-1.1-2.5-2.5S14.1 10 15.5 10s2.5 1.1 2.5 2.5-1.1 2.5-2.5 2.5z"/>
  </symbol>

  <!-- === НАВІГАЦІЯ === -->

  <!-- Home -->
  <symbol id="icon-home" viewBox="0 0 24 24">
    <path fill="currentColor" d="M10 20v-6h4v6h5v-8h3L12 3 2 12h3v8z"/>
  </symbol>

  <!-- Technologies -->
  <symbol id="icon-tech" viewBox="0 0 24 24">
    <path fill="currentColor" d="M19 18l2-2V4H3v12l2 2h3v-2h5v2h7zM5 12h2v2H5v-2zm0 4h2v2H5v-2zm0-8h2V6H5v2zm4 4h2v2H9v-2zm0 4h2v2H9v-2zm0-8h2V6H9v2zm4 4h2v2h-2v-2zm0 4h2v2h-2v-2zm0-8h2V6h-2v2z"/>
  </symbol>

  <!-- Projects -->
  <symbol id="icon-projects" viewBox="0 0 24 24">
    <path fill="currentColor" d="M19 3H5c-1.1 0-2 .9-2 2v14c0 1.1.9 2 2 2h14c1.1 0 2-.9 2-2V5c0-1.1-.9-2-2-2zm-7 12H6v-2h6v2zm3-4H6v-2h9v2z"/>
  </symbol>

  <!-- Contacts -->
  <symbol id="icon-contacts" viewBox="0 0 24 24">
    <path fill="currentColor" d="M12 12c2.21 0 4-1.79 4-4s-1.79-4-4-4-4 1.79-4 4 1.79 4 4 4zm0 2c-2.67 0-8 1.34-8 4v2h16v-2c0-2.66-5.33-4-8-4z"/>
  </symbol>

  <!-- === СОЦІАЛЬНІ МЕРЕЖІ (з брендовими кольорами) === -->

  <!-- Facebook -->
  <symbol id="icon-facebook" viewBox="0 0 24 24">
    <path fill="#1877F2" d="M12 0C5.373 0 0 5.373 0 12s5.373 12 12 12 12-5.373 12-12S18.627 0 12 0zm1 12.5h-1.5v5H9v-5H7.5v-2H9V9c0-1.1.9-2 2-2h2v2h-1.5c-.3 0-.5.2-.5.5v1h2v2z"/>
  </symbol>

  <!-- Telegram -->
  <symbol id="icon-telegram" viewBox="0 0 24 24">
    <circle cx="12" cy="12" r="12" fill="#26A5E4"/>
    <path fill="#fff" d="M17.5 7.5L6.5 13.5L10.5 16.5L16 13L12.5 15.5L11 18.5L14 20.5L17.5 7.5Z"/>
    <path fill="#fff" d="M10.5 16.5L8.5 19.5L6.5 13.5L10.5 16.5Z"/>
  </symbol>

  <!-- Instagram -->
  <symbol id="icon-instagram" viewBox="0 0 24 24">
    <path fill="#E1306C" d="M12 0C5.373 0 0 5.373 0 12s5.373 12 12 12 12-5.373 12-12S18.627 0 12 0zm0 4c2.5 0 2.8.01 3.8.05 1 .04 1.7.2 2.3.5.6.2 1.1.5 1.5.9.4.4.7.9.9 1.5.2.6.4 1.3.5 2.3.04 1 .05 1.3.05 3.8s-.01 2.8-.05 3.8c-.04 1-.2 1.7-.5 2.3-.2.6-.5 1.1-.9 1.5-.4.4-.9.7-1.5.9-.6.2-1.3.4-2.3.5-1 .04-1.3.05-3.8.05s-2.8-.01-3.8-.05c-1-.04-1.7-.2-2.3-.5-.6-.2-1.1-.5-1.5-.9-.4-.4-.7-.9-.9-1.5-.2-.6-.4-1.3-.5-2.3-.04-1-.05-1.3-.05-3.8s.01-2.8.05-3.8c.04-1 .2-1.7.5-2.3.2-.6.5-1.1.9-1.5.4-.4.9-.7 1.5-.9.6-.2 1.3-.4 2.3-.5 1-.04 1.3-.05 3.8-.05z"/>
    <circle cx="12" cy="12" r="4" fill="#fff"/>
    <circle cx="17.5" cy="6.5" r="1.5" fill="#fff"/>
  </symbol>

  <!-- LinkedIn -->
  <symbol id="icon-linkedin" viewBox="0 0 24 24">
    <path fill="#0A66C2" d="M12 0C5.373 0 0 5.373 0 12s5.373 12 12 12 12-5.373 12-12S18.627 0 12 0zM8 18H6V9h2v9zm-1-10.2c-.7 0-1.2-.5-1.2-1.1s.5-1.1 1.2-1.1 1.2.5 1.2 1.1c0 .6-.5 1.1-1.2 1.1zM18 18h-2v-4.7c0-1.1-.4-1.8-1.3-1.8-.7 0-1.2.5-1.4 1-.1.2-.1.5-.1.7V18h-2v-6.6h2v1c.3-.5.9-1.2 2-1.2 1.4 0 2.5.9 2.5 2.8V18z"/>
  </symbol>

  <!-- Slack (соціальний варіант з брендовими кольорами) -->
  <symbol id="icon-slack-brand" viewBox="0 0 24 24">
    <path fill="#E01E5A" d="M5.5 14.5c0 1.1-.9 2-2 2s-2-.9-2-2 .9-2 2-2h2v2zm1 0c0-1.1.9-2 2-2s2 .9 2 2v5c0 1.1-.9 2-2 2s-2-.9-2-2v-5z"/>
    <path fill="#36C5F0" d="M9.5 5.5c-1.1 0-2-.9-2-2s.9-2 2-2 2 .9 2 2v2h-2zm0 1c1.1 0 2 .9 2 2s-.9 2-2 2h-5c-1.1 0-2-.9-2-2s.9-2 2-2h5z"/>
    <path fill="#2EB67D" d="M18.5 9.5c0-1.1.9-2 2-2s2 .9 2 2-.9 2-2 2h-2v-2zm-1 0c0 1.1-.9 2-2 2s-2-.9-2-2v-5c0-1.1.9-2 2-2s2 .9 2 2v5z"/>
    <path fill="#ECB22E" d="M14.5 18.5c1.1 0 2 .9 2 2s-.9 2-2 2-2-.9-2-2v-2h2zm0-1c-1.1 0-2-.9-2-2s.9-2 2-2h5c1.1 0 2 .9 2 2s-.9 2-2 2h-5z"/>
  </symbol>

  <!-- Discord (соціальний варіант з брендовим кольором) -->
  <symbol id="icon-discord-brand" viewBox="0 0 24 24">
    <path fill="#5865F2" d="M20.5 4.5c-1.6-1.2-3.5-2-5.5-2.5-.2.4-.4.8-.5 1.2-2-.3-4-.3-6 0-.2-.4-.4-.8-.5-1.2-2 .5-3.9 1.3-5.5 2.5-3.5 5-4.5 10-4 15 2.3 1.7 5 2.9 8 3.5.6-.9 1.2-1.8 1.6-2.8-1-.4-2-.9-2.8-1.5.2-.2.5-.4.7-.6 2.8 1.3 5.9 1.3 8.7 0 .2.2.5.4.7.6-.9.6-1.8 1.1-2.8 1.5.5 1 1.1 1.9 1.6 2.8 3-.6 5.7-1.8 8-3.5.5-5-.5-10-4-15zM8.5 15c-1.4 0-2.5-1.1-2.5-2.5S7.1 10 8.5 10s2.5 1.1 2.5 2.5S9.9 15 8.5 15zm7 0c-1.4 0-2.5-1.1-2.5-2.5S14.1 10 15.5 10s2.5 1.1 2.5 2.5-1.1 2.5-2.5 2.5z"/>
  </symbol>
 <!-- Mail (Email) -->
  <symbol id="icon-mail" viewBox="0 0 24 24">
    <path fill="currentColor" d="M20 4H4c-1.1 0-2 .9-2 2v12c0 1.1.9 2 2 2h16c1.1 0 2-.9 2-2V6c0-1.1-.9-2-2-2zm0 4l-8 5-8-5V6l8 5 8-5v2z"/>
  </symbol>

  <!-- Map Pin (Location) -->
  <symbol id="icon-map-pin" viewBox="0 0 24 24">
    <path fill="currentColor" d="M12 2C8.13 2 5 5.13 5 9c0 5.25 7 13 7 13s7-7.75 7-13c0-3.87-3.13-7-7-7zm0 9.5c-1.38 0-2.5-1.12-2.5-2.5s1.12-2.5 2.5-2.5 2.5 1.12 2.5 2.5-1.12 2.5-2.5 2.5z"/>
  </symbol>

  <!-- Telephone (Phone) -->
  <symbol id="icon-telephone" viewBox="0 0 24 24">
    <path fill="currentColor" d="M6.62 10.79c1.44 2.83 3.76 5.14 6.59 6.59l2.2-2.2c.27-.27.67-.36 1.02-.24 1.12.37 2.33.57 3.57.57.55 0 1 .45 1 1V20c0 .55-.45 1-1 1-9.39 0-17-7.61-17-17 0-.55.45-1 1-1h3.5c.55 0 1 .45 1 1 0 1.25.2 2.45.57 3.57.11.35.03.74-.25 1.02l-2.2 2.2z"/>
  </symbol>

</svg>