<!-- sprite.svg -->
<svg xmlns="http://www.w3.org/2000/svg" style="display: none;">
  <!-- React -->
  <symbol id="icon-react" viewBox="0 0 24 24">
    <path fill="currentColor" d="M12.53.469c-2.457 0-4.448 1.99-4.448 4.448 0 2.458 1.99 4.449 4.448 4.449 2.459 0 4.449-1.991 4.449-4.449 0-2.458-1.99-4.448-4.449-4.448zm0 6.327c-1.137 0-2.068-.93-2.068-2.068s.931-2.068 2.068-2.068c1.138 0 2.069.93 2.069 2.068s-.931 2.068-2.069 2.068z"/>
    <path fill="currentColor" d="M23.671 11.17c-.163 0-.327-.026-.483-.08l-9.518-3.401-9.518 3.401c-.514.184-.834.688-.834 1.24v7.18c0 .552.32.1056.834.124l9.518 3.402 9.518-3.402c.514-.184.834-.688.834-1.24v-7.18c0-.552-.32-1.056-.834-1.24-.156-.054-.32-.08-.483-.08zM12 20.712l-7.932-2.833V12.32L12 9.488l7.932 2.832v5.559L12 20.712z"/>
  </symbol>

  <!-- JavaScript -->
  <symbol id="icon-javascript" viewBox="0 0 24 24">
    <path fill="currentColor" d="M11.472 21.792H7.008V3.216h5.088c2.4 0 4.08.768 4.08 3.456 0 2.304-1.728 3.168-4.08 3.168H11.04v5.328h.432c2.88 0 5.184-.96 5.184-4.32 0-3.744-2.64-4.56-5.232-4.56H6V21.792h5.472z"/>
  </symbol>

  <!-- Next.js -->
  <symbol id="icon-nextjs" viewBox="0 0 24 24">
    <path fill="currentColor" d="M12 0C5.373 0 0 5.373 0 12s5.373 12 12 12 12-5.373 12-12S18.627 0 12 0zm0 22.5C6.201 22.5 1.5 17.799 1.5 12S6.201 1.5 12 1.5 22.5 6.201 22.5 12 17.799 22.5 12 22.5z"/>
    <path fill="currentColor" d="M16.5 14.25H7.5V9.75h9v4.5zm-9-6H6v9h1.5v-9zm10.5 0h-1.5v9H16.5v-9z"/>
  </symbol>

  <!-- HTML -->
  <symbol id="icon-html" viewBox="0 0 24 24">
    <path fill="currentColor" d="M12 0C5.373 0 0 5.373 0 12s5.373 12 12 12 12-5.373 12-12S18.627 0 12 0zm-1.5 18v-6L6 6h3l3 4.5 3-4.5h3l-4.5 6.5V18h-1.5z"/>
  </symbol>

  <!-- CSS -->
  <symbol id="icon-css" viewBox="0 0 24 24">
    <path fill="currentColor" d="M12 0C5.373 0 0 5.373 0 12s5.373 12 12 12 12-5.373 12-12S18.627 0 12 0zm-2 16H8V8h2v8zm3 0h-2V8h2v8zm3 0h-2V8h2v8z"/>
  </symbol>

  <!-- Sass -->
  <symbol id="icon-sass" viewBox="0 0 24 24">
    <path fill="currentColor" d="M12 0C5.373 0 0 5.373 0 12s5.373 12 12 12 12-5.373 12-12S18.627 0 12 0zm-1.5 16.5v-9l6 4.5-6 4.5z"/>
  </symbol>

  <!-- Git -->
  <symbol id="icon-git" viewBox="0 0 24 24">
    <path fill="currentColor" d="M12 0C5.373 0 0 5.373 0 12s5.373 12 12 12 12-5.373 12-12S18.627 0 12 0zm0 22.5C6.201 22.5 1.5 17.799 1.5 12S6.201 1.5 12 1.5 22.5 6.201 22.5 12 17.799 22.5 12 22.5z"/>
    <path fill="currentColor" d="M12 6a6 6 0 100 12 6 6 0 000-12zm0 10.5a4.5 4.5 0 110-9 4.5 4.5 0 010 9z"/>
    <circle cx="12" cy="12" r="1.5" fill="currentColor"/>
  </symbol>

  <!-- GitHub -->
  <symbol id="icon-github" viewBox="0 0 24 24">
    <path fill="currentColor" d="M12 0C5.373 0 0 5.373 0 12s5.373 12 12 12 12-5.373 12-12S18.627 0 12 0zm0 22.5C6.201 22.5 1.5 17.799 1.5 12S6.201 1.5 12 1.5 22.5 6.201 22.5 12 17.799 22.5 12 22.5z"/>
    <path fill="currentColor" d="M12 6c-3.315 0-6 2.685-6 6 0 2.67 1.765 4.93 4.22 5.62.31.06.42-.13.42-.28v-1.01c-1.7.37-2.05-.72-2.05-.72-.27-.7-.67-1.02-.67-1.02-.54-.37.04-.36.04-.36.6.04.91.62.91.62.53.9.14 1.56.07 1.72.45.49.73 1.12.73 1.79 0 2.56 1.57 1.87 1.96 2.01.06.76.23 1.27.42 1.57-1.47.16-3.02-.7-3.49-1.68-.1-.36-.64-1.03-.73-1.25-.58-.59-1.78-.4-1.78-.4-.6.42-.93 1.06-.93 1.74 0 2.51 1.44 2.9 2.81 3.06.22.04.43.12.63.12.31 0 .43-.22.43-.41v-1.46c0-1.43-.51-1.74-1.02-2.05-.35-.22-.54-.81-.54-1.31 0-.76.27-1.31.7-1.71-2.24-.25-4.58-1.12-4.58-4.96 0-1.09.39-1.98 1.03-2.68-.1-.25-.45-1.27.1-2.64 0 0 .84-.27 2.75 1.02.79-.22 1.64-.33 2.49-.33.85 0 1.7.11 2.49.33 1.91-1.29 2.75-1.02 2.75-1.02.55 1.37.2 2.39.1 2.64.64.7 1.03 1.59 1.03 2.68 0 3.85-2.34 4.7-4.58 4.95.36.31.69.93.69 1.87v2.81c0 .41.13.75.43 1.01.51.54 1.23.78 2.02.78 3.08 0 5.6-2.52 5.6-5.6 0-3.11-2.52-5.63-5.6-5.63z"/>
  </symbol>

  <!-- Figma -->
  <symbol id="icon-figma" viewBox="0 0 24 24">
    <path fill="currentColor" d="M12 0C5.373 0 0 5.373 0 12s5.373 12 12 12 12-5.373 12-12S18.627 0 12 0zm-1.5 18v-6H6v-3h4.5v9zm3 0h-1.5v-6H9v-3h6v9z"/>
  </symbol>

  <!-- Vercel -->
  <symbol id="icon-vercel" viewBox="0 0 24 24">
    <path fill="currentColor" d="M12 0L0 24h24L12 0z"/>
  </symbol>

  <!-- Render -->
  <symbol id="icon-render" viewBox="0 0 24 24">
    <path fill="currentColor" d="M12 0C5.373 0 0 5.373 0 12s5.373 12 12 12 12-5.373 12-12S18.627 0 12 0zm0 22.5C6.201 22.5 1.5 17.799 1.5 12S6.201 1.5 12 1.5 22.5 6.201 22.5 12 17.799 22.5 12 22.5z"/>
    <path fill="currentColor" d="M12 4.5l7.5 9h-15l7.5-9zm0 13.5l-7.5-4.5h15l-7.5 4.5z"/>
  </symbol>

  <!-- Node.js -->
  <symbol id="icon-nodejs" viewBox="0 0 24 24">
    <path fill="currentColor" d="M12 0C5.373 0 0 5.373 0 12s5.373 12 12 12 12-5.373 12-12S18.627 0 12 0zm0 22.5C6.201 22.5 1.5 17.799 1.5 12S6.201 1.5 12 1.5 22.5 6.201 22.5 12 17.799 22.5 12 22.5z"/>
    <path fill="currentColor" d="M16.5 6c-1.05 0-2.01.33-2.82.87-.24-.3-.63-.48-.99-.48-.66 0-1.2.48-1.2 1.08 0 .36.18.66.42.87-.84 1.08-1.2 2.49-1.2 3.93 0 .51.12.99.36 1.41.24.39.63.63.99.63.66 0 1.2-.51 1.2-1.08 0-.36-.18-.66-.42-.87.84-1.08 1.2-2.49 1.2-3.93 0-.51-.12-.99-.36-1.41-.24-.39-.63-.63-.99-.63-.66 0-1.2.51-1.2 1.08 0 .36.18.66.42.87-.84 1.08-1.2 2.49-1.2 3.93 0 .51.12.99.36 1.41.24.39.63.63.99.63.66 0 1.2-.51 1.2-1.08 0-.36-.18-.66-.42-.87.84-1.08 1.2-2.49 1.2-3.93 0-.51-.12-.99-.36-1.41-.24-.39-.63-.63-.99-.63-.66 0-1.2.51-1.2 1.08 0 .36.18.66.42.87-.84 1.08-1.2 2.49-1.2 3.93 0 .51.12.99.36 1.41.24.39.63.63.99.63.66 0 1.2-.51 1.2-1.08 0-.36-.18-.66-.42-.87.84-1.08 1.2-2.49 1.2-3.93 0-.51-.12-.99-.36-1.41-.24-.39-.63-.63-.99-.63-.66 0-1.2.51-1.2 1.08 0 .36.18.66.42.87-.84 1.08-1.2 2.49-1.2 3.93 0 .51.12.99.36 1.41.24.39.63.63.99.63.66 0 1.2-.51 1.2-1.08 0-.36-.18-.66-.42-.87.84-1.08 1.2-2.49 1.2-3.93 0-.51-.12-.99-.36-1.41-.24-.39-.63-.63-.99-.63-.66 0-1.2.51-1.2 1.08 0 .36.18.66.42.87-.84 1.08-1.2 2.49-1.2 3.93 0 .51.12.99.36 1.41.24.39.63.63.99.63.66 0 1.2-.51 1.2-1.08 0-.36-.18-.66-.42-.87.84-1.08 1.2-2.49 1.2-3.93 0-.51-.12-.99-.36-1.41-.24-.39-.63-.63-.99-.63-.66 0-1.2.51-1.2 1.08 0 .36.18.66.42.87-.84 1.08-1.2 2.49-1.2 3.93 0 .51.12.99.36 1.41.24.39.63.63.99.63.66 0 1.2-.51 1.2-1.08 0-.36-.18-.66-.42-.87.84-1.08 1.2-2.49-1.2-3.93 0-.51-.12-.99-.36-1.41-.24-.39-.63-.63-.99-.63-.66 0-1.2.51-1.2 1.08 0 .36.18.66.42.87-.84 1.08-1.2 2.49-1.2 3.93 0 .51.12.99.36 1.41.24.39.63.63.99.63.66 0 1.2-.51 1.2-1.08 0-.36-.18-.66-.42-.87.84-1.08 1.2-2.49-1.2 3.93 0 .51.12.99.36 1.41.24.39.63.63.99.63.66 0 1.2-.51 1.2-1.08 0-.36-.18-.66-.42-.87.84-1.08 1.2-2.49-1.2 3.93 0 .51.12.99.36 1.41.24.39.63.63.99.63.66 0 1.2-.51 1.2-1.08 0-.36-.18-.66-.42-.87.84-1.08 1.2-2.49-1.2 3.93 0 .51.12.99.36 1.41.24.39.63.63.99.63.66 0 1.2-.51 1.2-1.08 0-.36-.18-.66-.42-.87.84-1.08 1.2-2.49-1.2 3.93 0 .51.12.99.36 1.41.24.39.63.63.99.63.66 0 1.2-.51 1.2-1.08 0-.36-.18-.66-.42-.87.84-1.08 1.2-2.49-1.2 3.93 0 .51.12.99.36 1.41.24.39.63.63.99.63.66 0 1.2-.51 1.2-1.08 0-.36-.18-.66-.42-.87.84-1.08 1.2-2.49-1.2 3.93 0 .51.12.99.36 1.41.24.39.63.63.99.63.66 0 1.2-.51 1.2-1.08 0-.36-.18-.66-.42-.87.84-1.08 1.2-2.49-1.2 3.93 0 .51.12.99.36 1.41.24.39.63.63.99.63.66 0 1.2-.51 1.2-1.08 0-.36-.18-.66-.42-.87.84-1.08 1.2-2.49-1.2 3.93 0 .51.12.99.36 1.41.24.39.63.63.99.63.66 0 1.2-.51 1.2-1.08 0-.36-.18-.66-.42-.87.84-1.08 1.2-2.49-1.2 3.93 0 .51.12.99.36 1.41.24.39.63.63.99.63.66 0 1.2-.51 1.2-1.08 0-.36-.18-.66-.42-.87.84-1.08 1.2-2.49-1.2 3.93 0 .51.12.99.36 1.41.24.39.63.63.99.63.66 0 1.2-.51 1.2-1.08 0-.36-.18-.66-.42-.87.84-1.08 1.2-2.49-1.2 3.93 0 .51.12.99.36 1.41.24.39.63.63.99.63.66 0 1.2-.51 1.2-1.08 0-.36-.18-.66-.42-.87.84-1.08 1.2-2.49-1.2 3.93 0 .51.12.99.36 1.41.24.39.63.63.99.63.66 0 1.2-.51 1.2-1.08 0-.36-.18-.66-.42-.87.84-1.08 1.2-2.49-1.2 3.93 0 .51.12.99.36 1.41.24.39.63.63.99.63.66 0 1.2-.51 1.2-1.08 0-.36-.18-.66-.42-.87.84-1.08 1.2-2.49-1.2 3.93 0 .51.12.99.36 1.41.24.39.63.63.99.63.66 0 1.2-.51 1.2-1.08 0-.36-.18-.66-.42-.87.84-1.08 1.2-2.49-1.2 3.93 0 .51.12.99.36 1.41.24.39.63.63.99.63.66 0 1.2-.51 1.2-1.08 0-.36-.18-.66-.42-.87.84-1.08 1.2-2.49-1.2 3.93 0 .51.12.99.36 1.41.24.39.63.63.99.63.66 0 1.2-.51 1.2-1.08 0-.36-.18-.66-.42-.87.84-1.08 1.2-2.49-1.2 3.93 0 .51.12.99.36 1.41.24.39.63.63.99.63.66 0 1.2-.51 1.2-1.08 0-.36-.18-.66-.42-.87.84-1.08 1.2-2.49-1.2 3.93 0 .51.12.99.36 1.41.24.39.63.63.99.63.66 0 1.2-.51 1.2-1.08 0-.36-.18-.66-.42-.87.84-1.08 1.2-2.49-1.2 3.93 0 .51.12.99.36 1.41.24.39.63.63.99.63.66 0 1.2-.51 1.2-1.08 0-.36-.18-.66-.42-.87.84-1.08 1.2-2.49-1.2 3.93 0 .51.12.99.36 1.41.24.39.63.63.99.63.66 0 1.2-.51 1.2-1.08 0-.36-.18-.66-.42-.87.84-1.08 1.2-2.49-1.2 3.93 0 .51.12.99.36 1.41.24.39.63.63.99.63.66 0 1.2-.51 1.2-1.08 0-.36-.18-.66-.42-.87.84-1.08 1.2-2.49-1.2 3.93 0 .51.12.99.36 1.41.24.39.63.63.99.63.66 0 1.2-.51 1.2-1.08 0-.36-.18-.66-.42-.87.84-1.08 1.2-2.49-1.2 3.93 0 .51.12.99.36 1.41.24.39.63.63.99.63.66 0 1.2-.51 1.2-1.08 0-.36-.18-.66-.42-.87.84-1.08 1.2-2.49-1.2 3.93 0 .51.12.99.36 1.41.24.39.63.63.99.63.66 0 1.2-.51 1.2-1.08 0-.36-.18-.66-.42-.87.84-1.08 1.2-2.49-1.2 3.93 0 .51.12.99.36 1.41.24.39.63.63.99.63.66 0 1.2-.51 1.2-1.08 0-.36-.18-.66-.42-.87.84-1.08 1.2-2.49-1.2 3.93 0 .51.12.99.36 1.41.24.39.63.63.99.63.66 0 1.2-.51 1.2-1.08 0-.36-.18-.66-.42-.87.84-1.08 1.2-2.49-1.2 3.93 0 .51.12.99.36 1.41.24.39.63.63.99.63.66 0 1.2-.51 1.2-1.08 0-.36-.18-.66-.42-.87.84-1.08 1.2-2.49-1.2 3.93 0 .51.12.99.36 1.41.24.39.63.63.99.63.66 0 1.2-.51 1.2-1.08 0-.36-.18-.66-.42-.87.84-1.08 1.2-2.49-1.2 3.93 0 .51.12.99.36 1.41.24.39.63.63.99.63.66 0 1.2-.51 1.2-1.08 0-.36-.18-.66-.42-.87.84-1.08 1.2-2.49-1.2 3.93 0 .51.12.99.36 1.41.24.39.63.63.99.63.66 0 1.2-.51 1.2-1.08 0-.36-.18-.66-.42-.87.84-1.08 1.2-2.49-1.2 3.93 0 .51.12.99.36 1.41.24.39.63.63.99.63.66 0 1.2-.51 1.2-1.08 0-.36-.18-.66-.42-.87.84-1.08 1.2-2.49-1.2 3.93 0 .51.12.99.36 1.41.24.39.63.63.99.63.66 0 1.2-.51 1.2-1.08 0-.36-.18-.66-.42-.87.84-1.08 1.2-2.49-1.2 3.93 0 .51.12.99.36 1.41.24.39.63.63.99.63.66 0 1.2-.51 1.2-1.08 0-.36-.18-.66-.42-.87.84-1.08 1.2-2.49-1.2 3.93 0 .51.12.99.36 1.41.24.39.63.63.99.63.66 0 1.2-.51 1.2-1.08 0-.36-.18-.66-.42-.87.84-1.08 1.2-2.49-1.2 3.93 0 .51.12.99.36 1.41.24.39.63.63.99.63.66 0 1.2-.51 1.2-1.08 0-.36-.18-.66-.42-.87.84-1.08 1.2-2.49-1.2 3.93 0 .51.12.99.36 1.41.24.39.63.63.99.63.66 0 1.2-.51 1.2-1.08 0-.36-.18-.66-.42-.87.84-1.08 1.2-2.49-1.2 3.93 0 .51.12.99.36 1.41.24.39.63.63.99.63.66 0 1.2-.51 1.2-1.08 0-.36-.18-.66-.42-.87.84-1.08 1.2-2.49-1.2 3.93 0 .51.12.99.36 1.41.24.39.63.63.99.63.66 0 1.2-.51 1.2-1.08 0-.36-.18-.66-.42-.87.84-1.08 1.2-2.49-1.2 3.93 0 .51.12.99.36 1.41.24.39.63.63.99.63.66 0 1.2-.51 1.2-1.08 0-.36-.18-.66-.42-.87.84-1.08 1.2-2.49-1.2 3.93 0 .51.12.99.36 1.41.24.39.63.63.99.63.66 0 1.2-.51 1.2-1.08 0-.36-.18-.66-.42-.87.84-1.08 1.2-2.49-1.2 3.93 0 .51.12.99.36 1.41.24.39.63.63.99.63.66 0 1.2-.51 1.2-1.08 0-.36-.18-.66-.42-.87.84-1.08 1.2-2.49-1.2 3.93 0 .51.12.99.36 1.41.24.39.63.63.99.63.66 0 1.2-.51 1.2-1.08 0-.36-.18-.66-.42-.87.84-1.08 1.2-2.49-1.2 3.93 0 .51.12.99.36 1.41.24.39.63.63.99.63.66 0 1.2-.51 1.2-1.08 0-.36-.18-.66-.42-.87.84-1.08 1.2-2.49-1.2 3.93 0 .51.12.99.36 1.41.24.39.63.63.99.63.66 0 1.2-.51 1.2-1.08 0-.36-.18-.66-.42-.87.84-1.08 1.2-2.49-1.2 3.93 0 .51.12.99.36 1.41.24.39.63.63.99.63.66 0 1.2-.51 1.2-1.08 0-.36-.18-.66-.42-.87.84-1.08 1.2-2.49-1.2 3.93 0 .51.12"/>

    

  <!-- Home Icon -->
  <symbol id="icon-home" viewBox="0 0 24 24">
    <path fill=" #fff" d="M10 20v-6h4v6h5v-8h3L12 3 2 12h3v8z"/>
  </symbol>

  <!-- Technologies Icon -->
  <symbol id="icon-tech" viewBox="0 0 24 24">
    <path fill=" #fff" d="M19 18l2-2V4H3v12l2 2h3v-2h5v2h7zM5 12h2v2H5v-2zm0 4h2v2H5v-2zm0-8h2V6H5v2zm4 4h2v2H9v-2zm0 4h2v2H9v-2zm0-8h2V6H9v2zm4 4h2v2h-2v-2zm0 4h2v2h-2v-2zm0-8h2V6h-2v2z"/>
  </symbol>

  <!-- Projects Icon -->
  <symbol id="icon-projects" viewBox="0 0 24 24">
    <path fill=" #fff" d="M19 3H5c-1.1 0-2 .9-2 2v14c0 1.1.9 2 2 2h14c1.1 0 2-.9 2-2V5c0-1.1-.9-2-2-2zm-7 12H6v-2h6v2zm3-4H6v-2h9v2z"/>
  </symbol>

  <!-- Contacts Icon -->
  <symbol id="icon-contacts" viewBox="0 0 24 24">
    <path fill=" #fff" d="M12 12c2.21 0 4-1.79 4-4s-1.79-4-4-4-4 1.79-4 4 1.79 4 4 4zm0 2c-2.67 0-8 1.34-8 4v2h16v-2c0-2.66-5.33-4-8-4z"/>
  </symbol>

  <!-- Node.js Icon -->
  <symbol id="icon-nodejs" viewBox="0 0 24 24">
    <path fill="currentColor" d="M12 0C5.373 0 0 5.373 0 12s5.373 12 12 12 12-5.373 12-12S18.627 0 12 0zm0 22.5C6.201 22.5 1.5 17.799 1.5 12S6.201 1.5 12 1.5 22.5 6.201 22.5 12 17.799 22.5 12 22.5z"/>
    <path fill="currentColor" d="M16.5 6c-1.05 0-2.01.33-2.82.87-.24-.3-.63-.48-.99-.48-.66 0-1.2.48-1.2 1.08 0 .36.18.66.42.87-.84 1.08-1.2 2.49-1.2 3.93 0 .51.12.99.36 1.41.24.39.63.63.99.63.66 0 1.2-.51 1.2-1.08 0-.36-.18-.66-.42-.87.84-1.08 1.2-2.49 1.2-3.93 0-.51-.12-.99-.36-1.41-.24-.39-.63-.63-.99-.63-.66 0-1.2.51-1.2 1.08 0 .36.18.66.42.87-.84 1.08-1.2 2.49-1.2 3.93 0 .51.12.99.36 1.41.24.39.63.63.99.63.66 0 1.2-.51 1.2-1.08 0-.36-.18-.66-.42-.87.84-1.08 1.2-2.49 1.2-3.93 0-.51-.12-.99-.36-1.41-.24-.39-.63-.63-.99-.63-.66 0-1.2.51-1.2 1.08z"/>
  </symbol>

  <!-- Express.js Icon -->
  <symbol id="icon-expressjs" viewBox="0 0 24 24">
    <path fill="currentColor" d="M2 6h20v2H2zm0 5h20v2H2zm0 5h20v2H2z"/>
    <path fill="currentColor" d="M22 4H2v2h20V4zm0 7H2v2h20v-2zm0 7H2v2h20v-2z"/>
  </symbol>

  <!-- MongoDB Icon -->
  <symbol id="icon-mongodb" viewBox="0 0 24 24">
    <path fill="currentColor" d="M12 0C5.373 0 0 5.373 0 12s5.373 12 12 12 12-5.373 12-12S18.627 0 12 0zm0 22.5C6.201 22.5 1.5 17.799 1.5 12S6.201 1.5 12 1.5 22.5 6.201 22.5 12 17.799 22.5 12 22.5z"/>
    <path fill="currentColor" d="M12 6c-3.315 0-6 2.685-6 6s2.685 6 6 6 6-2.685 6-6-2.685-6-6-6zm0 10.5c-2.48 0-4.5-2.02-4.5-4.5s2.02-4.5 4.5-4.5 4.5 2.02 4.5 4.5-2.02 4.5-4.5 4.5z"/>
    <circle cx="12" cy="12" r="2.25" fill="currentColor"/>
  </symbol>
</svg>